<svg width="24" height="25" viewBox="0 0 24 25" fill="none" xmlns="http://www.w3.org/2000/svg">
<g clip-path="url(#clip0_198_105)">
<path d="M17.7753 10.0319H15.6753H14.9253V9.28193V6.95693V6.20693H15.6753H17.2503C17.6628 6.20693 18.0003 5.90693 18.0003 5.45693V1.48193C18.0003 1.06943 17.7003 0.731934 17.2503 0.731934H14.5128C11.5503 0.731934 9.48779 2.83193 9.48779 5.94443V9.20693V9.95693H8.73779H6.18779C5.66279 9.95693 5.17529 10.3694 5.17529 10.9694V13.6694C5.17529 14.1944 5.58779 14.6819 6.18779 14.6819H8.66279H9.41279V15.4319V22.9694C9.41279 23.4944 9.82529 23.9819 10.4253 23.9819H13.9503C14.1753 23.9819 14.3628 23.8694 14.5128 23.7194C14.6628 23.5694 14.7753 23.3069 14.7753 23.0819V15.4694V14.7194H15.5628H17.2503C17.7378 14.7194 18.1128 14.4194 18.1878 13.9694V13.9319V13.8944L18.7128 11.3069C18.7503 11.0444 18.7128 10.7444 18.4878 10.4444C18.4128 10.2569 18.0753 10.0694 17.7753 10.0319Z" fill="black"/>
</g>
<defs>
<clipPath id="clip0_198_105">
<rect width="24" height="24" fill="white" transform="translate(0 0.356934)"/>
</clipPath>
</defs>
</svg>
