<svg width="24" height="25" viewBox="0 0 24 25" fill="none" xmlns="http://www.w3.org/2000/svg">
<g clip-path="url(#clip0_254_425)">
<path d="M17.7758 10.0319H15.6758H14.9258V9.28193V6.95693V6.20693H15.6758H17.2508C17.6633 6.20693 18.0008 5.90693 18.0008 5.45693V1.48193C18.0008 1.06943 17.7008 0.731934 17.2508 0.731934H14.5133C11.5508 0.731934 9.48828 2.83193 9.48828 5.94443V9.20693V9.95693H8.73828H6.18828C5.66328 9.95693 5.17578 10.3694 5.17578 10.9694V13.6694C5.17578 14.1944 5.58828 14.6819 6.18828 14.6819H8.66328H9.41328V15.4319V22.9694C9.41328 23.4944 9.82578 23.9819 10.4258 23.9819H13.9508C14.1758 23.9819 14.3633 23.8694 14.5133 23.7194C14.6633 23.5694 14.7758 23.3069 14.7758 23.0819V15.4694V14.7194H15.5633H17.2508C17.7383 14.7194 18.1133 14.4194 18.1883 13.9694V13.9319V13.8944L18.7133 11.3069C18.7508 11.0444 18.7133 10.7444 18.4883 10.4444C18.4133 10.2569 18.0758 10.0694 17.7758 10.0319Z" fill="black"/>
</g>
<defs>
<clipPath id="clip0_254_425">
<rect width="24" height="24" fill="white" transform="translate(0 0.356934)"/>
</clipPath>
</defs>
</svg>
