<svg width="344" height="109" viewBox="0 0 344 109" fill="none" xmlns="http://www.w3.org/2000/svg">
<path d="M133.825 73.2656C131.03 73.2656 128.615 72.8043 126.58 71.8816C124.579 70.9247 122.871 69.6602 121.457 68.0882L124.251 65.6788C125.528 67.0117 126.925 68.0369 128.443 68.7546C129.961 69.4722 131.789 69.8311 133.928 69.8311C135.998 69.8311 137.688 69.4722 138.999 68.7546C140.345 68.0027 141.017 66.8408 141.017 65.2687C141.017 64.5852 140.879 64.0214 140.603 63.5771C140.362 63.0986 140.017 62.7227 139.569 62.4493C139.12 62.1759 138.62 61.9709 138.068 61.8342C137.516 61.6633 136.929 61.5266 136.308 61.4241L132.117 60.8089C131.185 60.6722 130.168 60.4843 129.064 60.245C127.994 60.0058 127.011 59.6299 126.114 59.1173C125.217 58.5705 124.458 57.8528 123.837 56.9643C123.251 56.0757 122.957 54.9138 122.957 53.4784C122.957 52.1456 123.216 51.0008 123.734 50.0439C124.286 49.0528 125.045 48.2326 126.011 47.5833C126.977 46.8998 128.115 46.4043 129.426 46.0967C130.737 45.755 132.169 45.5841 133.721 45.5841C136.136 45.5841 138.223 45.96 139.983 46.7118C141.776 47.4637 143.312 48.506 144.588 49.8388L141.897 52.3507C141.587 51.9748 141.19 51.5988 140.707 51.2229C140.258 50.8128 139.689 50.454 138.999 50.1464C138.344 49.8047 137.568 49.5313 136.671 49.3262C135.774 49.1212 134.739 49.0186 133.566 49.0186C131.461 49.0186 129.84 49.3775 128.701 50.0951C127.598 50.8128 127.046 51.8551 127.046 53.2221C127.046 53.9056 127.166 54.4866 127.408 54.965C127.684 55.4093 128.046 55.7682 128.494 56.0416C128.943 56.315 129.443 56.5371 129.995 56.708C130.582 56.8447 131.168 56.9643 131.755 57.0668L135.946 57.6819C136.912 57.8186 137.93 58.0066 138.999 58.2458C140.069 58.485 141.052 58.8781 141.949 59.4249C142.846 59.9375 143.588 60.6381 144.174 61.5266C144.795 62.4151 145.106 63.5771 145.106 65.0124C145.106 67.6439 144.071 69.6773 142.001 71.1126C139.965 72.548 137.24 73.2656 133.825 73.2656Z" fill="black"/>
<path d="M159.213 40.3553C158.005 40.3553 157.16 40.1161 156.677 39.6377C156.194 39.125 155.952 38.4928 155.952 37.741V36.9208C155.952 36.1689 156.194 35.5538 156.677 35.0753C157.16 34.5627 158.005 34.3064 159.213 34.3064C160.42 34.3064 161.265 34.5627 161.748 35.0753C162.231 35.5538 162.473 36.1689 162.473 36.9208V37.741C162.473 38.4928 162.231 39.125 161.748 39.6377C161.265 40.1161 160.42 40.3553 159.213 40.3553ZM147.517 69.1647H157.143V49.685H147.517V46.1992H161.282V69.1647H170.287V72.6505H147.517V69.1647Z" fill="black"/>
<path d="M179.529 72.6505C177.494 72.6505 175.993 72.0866 175.027 70.9588C174.096 69.8311 173.63 68.3786 173.63 66.6016V49.685H164.729V46.1992H171.353C172.25 46.1992 172.871 46.0283 173.216 45.6866C173.595 45.3107 173.785 44.6784 173.785 43.7899V36.8695H177.77V46.1992H189.931V49.685H177.77V69.1647H189.931V72.6505H179.529Z" fill="black"/>
<path d="M213.921 72.6505C212.3 72.6505 211.144 72.2404 210.454 71.4202C209.764 70.6 209.333 69.5748 209.161 68.3445H208.902C208.315 69.8823 207.367 71.0955 206.056 71.9841C204.779 72.8384 203.054 73.2656 200.881 73.2656C198.086 73.2656 195.861 72.548 194.205 71.1126C192.549 69.6773 191.721 67.7122 191.721 65.2175C191.721 62.7569 192.618 60.8602 194.412 59.5274C196.241 58.1946 199.173 57.5282 203.21 57.5282H208.902V54.9138C208.902 52.9658 208.35 51.5134 207.246 50.5565C206.142 49.5654 204.572 49.0699 202.537 49.0699C200.743 49.0699 199.277 49.4287 198.138 50.1464C197 50.8299 196.086 51.7697 195.396 52.9658L192.601 50.9153C192.946 50.2318 193.412 49.5654 193.998 48.9161C194.585 48.2668 195.309 47.7029 196.172 47.2245C197.034 46.7118 198.017 46.3188 199.121 46.0454C200.225 45.7379 201.45 45.5841 202.796 45.5841C205.935 45.5841 208.419 46.3701 210.247 47.9421C212.11 49.5142 213.042 51.7014 213.042 54.5037V69.0621H216.767V72.6505H213.921ZM201.605 69.8311C202.675 69.8311 203.641 69.7115 204.503 69.4722C205.4 69.1988 206.176 68.8571 206.832 68.447C207.487 68.0027 207.988 67.4901 208.333 66.9091C208.712 66.294 208.902 65.6447 208.902 64.9612V60.6039H203.21C200.726 60.6039 198.914 60.9456 197.776 61.6291C196.638 62.3126 196.068 63.3037 196.068 64.6023V65.6788C196.068 67.0458 196.551 68.0882 197.517 68.8058C198.518 69.4893 199.88 69.8311 201.605 69.8311Z" fill="black"/>
<path d="M218.196 69.1647H227.2V49.685H217.679V46.1992H227.2V40.7654C227.2 38.9883 227.666 37.5359 228.598 36.4082C229.563 35.2804 231.064 34.7165 233.1 34.7165H242.052V38.2023H231.34V46.1992H242.052V49.685H231.34V69.1647H240.862V72.6505H218.196V69.1647Z" fill="black"/>
<path d="M265.111 72.6505C263.49 72.6505 262.334 72.2404 261.644 71.4202C260.954 70.6 260.523 69.5748 260.35 68.3445H260.092C259.505 69.8823 258.557 71.0955 257.246 71.9841C255.969 72.8384 254.244 73.2656 252.071 73.2656C249.276 73.2656 247.051 72.548 245.395 71.1126C243.739 69.6773 242.911 67.7122 242.911 65.2175C242.911 62.7569 243.808 60.8602 245.602 59.5274C247.431 58.1946 250.363 57.5282 254.4 57.5282H260.092V54.9138C260.092 52.9658 259.54 51.5134 258.436 50.5565C257.332 49.5654 255.762 49.0699 253.727 49.0699C251.933 49.0699 250.467 49.4287 249.328 50.1464C248.19 50.8299 247.276 51.7697 246.586 52.9658L243.791 50.9153C244.136 50.2318 244.602 49.5654 245.188 48.9161C245.775 48.2668 246.499 47.7029 247.362 47.2245C248.224 46.7118 249.207 46.3188 250.311 46.0454C251.415 45.7379 252.64 45.5841 253.986 45.5841C257.125 45.5841 259.609 46.3701 261.437 47.9421C263.3 49.5142 264.232 51.7014 264.232 54.5037V69.0621H267.957V72.6505H265.111ZM252.795 69.8311C253.865 69.8311 254.831 69.7115 255.693 69.4722C256.59 69.1988 257.366 68.8571 258.022 68.447C258.677 68.0027 259.178 67.4901 259.523 66.9091C259.902 66.294 260.092 65.6447 260.092 64.9612V60.6039H254.4C251.916 60.6039 250.104 60.9456 248.966 61.6291C247.828 62.3126 247.258 63.3037 247.258 64.6023V65.6788C247.258 67.0458 247.741 68.0882 248.707 68.8058C249.708 69.4893 251.07 69.8311 252.795 69.8311Z" fill="black"/>
<path d="M269.231 69.1647H278.546V38.2023H269.231V34.7165H282.685V69.1647H292V72.6505H269.231V69.1647Z" fill="black"/>
<path d="M56 63.7715V53.0985C56 47.0537 59.2848 41.473 64.6061 38.4772L73.9573 33.2128C79.1978 30.2624 85.6281 30.2624 90.8687 33.2127L100.22 38.4772C105.541 41.473 108.826 47.0537 108.826 53.0985L108.826 58.3975L95.5414 35.8982L69.2925 35.8982L56.3281 58.3975L69.2925 80.8967L95.5414 80.8967L108.826 58.3975L108.826 63.7715C108.826 69.7528 105.609 75.2849 100.376 78.3038L91.0248 83.6983C85.7049 86.7672 79.1211 86.7672 73.8012 83.6983L64.45 78.3038C59.2167 75.2849 56 69.7528 56 63.7715Z" fill="#1F4C42"/>
</svg>
