<svg width="24" height="25" viewBox="0 0 24 25" fill="none" xmlns="http://www.w3.org/2000/svg">
<g clip-path="url(#clip0_198_111)">
<path d="M21.9381 1.01807H2.10059C1.16309 1.01807 0.413086 1.76807 0.413086 2.70557V22.5806C0.413086 23.4806 1.16309 24.2681 2.10059 24.2681H21.8631C22.8006 24.2681 23.5506 23.5181 23.5506 22.5806V2.66807C23.6256 1.76807 22.8756 1.01807 21.9381 1.01807ZM7.2756 20.7806H3.8631V9.71807H7.2756V20.7806ZM5.5506 8.18057C4.4256 8.18057 3.56309 7.28057 3.56309 6.19307C3.56309 5.10557 4.4631 4.20557 5.5506 4.20557C6.6381 4.20557 7.5381 5.10557 7.5381 6.19307C7.5381 7.28057 6.7131 8.18057 5.5506 8.18057ZM20.2131 20.7806H16.8006V15.4181C16.8006 14.1431 16.7631 12.4556 15.0006 12.4556C13.2006 12.4556 12.9381 13.8806 12.9381 15.3056V20.7806H9.5256V9.71807H12.8631V11.2556H12.9006C13.3881 10.3556 14.4756 9.45557 16.1631 9.45557C19.6506 9.45557 20.2881 11.7056 20.2881 14.7806V20.7806H20.2131Z" fill="black"/>
</g>
<defs>
<clipPath id="clip0_198_111">
<rect width="24" height="24" fill="white" transform="translate(0 0.643066)"/>
</clipPath>
</defs>
</svg>
