<svg width="24" height="27" viewBox="0 0 24 27" fill="none" xmlns="http://www.w3.org/2000/svg">
<path d="M7.6125 23.7056C16.4625 23.7056 21.2625 15.8708 21.2625 9.08063C21.2625 8.91992 21.2625 8.63867 21.225 8.3976C22.1625 7.67438 22.9875 6.75028 23.625 5.74581C22.725 6.18778 21.825 6.42885 20.8875 6.54938C21.9 5.90653 22.65 4.90206 22.9875 3.69671C22.05 4.25921 21.075 4.70117 19.9125 4.94224C19.0125 3.93778 17.8125 3.29492 16.425 3.29492C13.7625 3.29492 11.5875 5.62528 11.5875 8.47795C11.5875 8.87974 11.625 9.28153 11.7 9.68331C7.8375 9.40206 4.3125 7.35295 1.9125 4.25921C1.5 5.06278 1.275 5.90653 1.275 6.83063C1.275 8.63867 2.1375 10.1655 3.45 11.0896C2.6625 11.0494 1.9125 10.8083 1.275 10.4467C1.275 10.4869 1.275 10.4869 1.275 10.4869C1.275 12.9378 2.925 15.0672 5.1 15.5494C4.6875 15.6699 4.2375 15.7101 3.9 15.7101C3.6 15.7101 3.2625 15.6699 3 15.5896C3.6375 17.6387 5.4 19.1253 7.5 19.1655C5.85 20.5315 3.7875 21.3753 1.575 21.3753C1.125 21.4556 0.75 21.3753 0.375 21.3351C2.4 22.8619 4.9125 23.7056 7.6125 23.7056Z" fill="black"/>
</svg>
