<svg width="24" height="25" viewBox="0 0 24 25" fill="none" xmlns="http://www.w3.org/2000/svg">
<g clip-path="url(#clip0_198_107)">
<path d="M23.5875 7.84307C23.55 6.64307 23.325 5.78057 23.0625 4.99307C22.8 4.20557 22.3875 3.56807 21.75 2.93057C21.1125 2.29307 20.475 1.91807 19.725 1.61807C18.975 1.31807 18.15 1.13057 16.875 1.09307C15.5625 1.01807 15.1875 1.01807 12 1.01807C8.8125 1.01807 8.475 1.01807 7.2 1.05557C5.925 1.09307 5.1375 1.31807 4.35 1.58057C3.5625 1.84307 2.925 2.29307 2.2875 2.93057C1.65 3.56807 1.2375 4.20557 0.975 4.99307C0.675 5.74307 0.4875 6.56807 0.45 7.84307C0.4125 9.11807 0.375 9.45557 0.375 12.6431C0.375 15.8306 0.375 16.1681 0.4125 17.4431C0.45 18.7181 0.675 19.5056 0.9375 20.2931C1.2 21.0806 1.6125 21.7181 2.25 22.3556C2.8875 22.9931 3.5625 23.4056 4.3125 23.6681C5.0625 23.9306 5.8875 24.1556 7.1625 24.1931C8.4375 24.2681 8.775 24.2681 11.9625 24.2681C15.15 24.2681 15.4875 24.2681 16.7625 24.2306C18.0375 24.1931 18.825 23.9681 19.6125 23.7056C20.4 23.4431 21.0375 23.0306 21.675 22.3931C22.3125 21.7556 22.725 21.0806 22.9875 20.3306C23.25 19.5806 23.475 18.7556 23.5125 17.4806C23.55 16.2806 23.55 15.9056 23.55 12.7181C23.55 9.53057 23.625 9.11807 23.5875 7.84307ZM21.4875 17.3306C21.45 18.4556 21.225 19.0556 21.075 19.5056C20.85 20.0306 20.5875 20.4431 20.175 20.8181C19.7625 21.2306 19.3875 21.4556 18.8625 21.7181C18.45 21.8681 17.85 22.0931 16.6875 22.1306C15.4875 22.1306 15.1125 22.1306 12.0375 22.1306C8.9625 22.1306 8.55 22.1306 7.35 22.0931C6.225 22.0556 5.625 21.8306 5.175 21.6806C4.65 21.4556 4.2375 21.1931 3.8625 20.7806C3.45 20.3681 3.225 19.9931 2.9625 19.4681C2.8125 19.0556 2.5875 18.4556 2.55 17.2931C2.55 16.1306 2.55 15.7556 2.55 12.6431C2.55 9.53057 2.55 9.15557 2.5875 7.95557C2.625 6.83057 2.85 6.23057 3 5.78057C3.225 5.25557 3.4875 4.84307 3.8625 4.46807C4.275 4.05557 4.65 3.83057 5.175 3.60557C5.5875 3.45557 6.1875 3.23057 7.35 3.19307C8.55 3.15557 8.925 3.15557 12.0375 3.15557C15.15 3.15557 15.525 3.15557 16.725 3.19307C17.85 3.23057 18.45 3.45557 18.9 3.60557C19.425 3.83057 19.8375 4.09307 20.2125 4.46807C20.625 4.88057 20.85 5.25557 21.1125 5.78057C21.2625 6.19307 21.4875 6.79307 21.525 7.95557C21.5625 9.15557 21.5625 9.53057 21.5625 12.6431C21.5625 15.7556 21.525 16.1306 21.4875 17.3306Z" fill="black"/>
<path d="M12.0006 6.68018C8.66309 6.68018 6.03809 9.38018 6.03809 12.6427C6.03809 15.9802 8.73809 18.6052 12.0006 18.6052C15.2631 18.6052 18.0006 15.9802 18.0006 12.6427C18.0006 9.30518 15.3381 6.68018 12.0006 6.68018ZM12.0006 16.5427C9.82559 16.5427 8.10059 14.7802 8.10059 12.6427C8.10059 10.5052 9.86309 8.74268 12.0006 8.74268C14.1756 8.74268 15.9006 10.4677 15.9006 12.6427C15.9006 14.8177 14.1756 16.5427 12.0006 16.5427Z" fill="black"/>
<path d="M18.2625 7.80576C19.0288 7.80576 19.65 7.18454 19.65 6.41826C19.65 5.65195 19.0288 5.03076 18.2625 5.03076C17.4962 5.03076 16.875 5.65195 16.875 6.41826C16.875 7.18454 17.4962 7.80576 18.2625 7.80576Z" fill="black"/>
</g>
<defs>
<clipPath id="clip0_198_107">
<rect width="24" height="24" fill="white" transform="translate(0 0.643066)"/>
</clipPath>
</defs>
</svg>
