<svg width="28" height="30" viewBox="0 0 28 30" fill="none" xmlns="http://www.w3.org/2000/svg">
<path d="M0 17.8754V12.0537C0 8.75657 1.74109 5.71254 4.56159 4.0785L9.51811 1.20696C12.2958 -0.402316 15.7042 -0.402319 18.4819 1.20695L23.4384 4.07849C26.2589 5.71254 28 8.75657 28 12.0537L28 14.9441L20.9586 2.67174L7.0456 2.67174L0.173915 14.9441L7.0456 27.2164L20.9586 27.2164L28 14.9441L28 17.8754C28 21.1379 26.295 24.1554 23.5211 25.8021L18.5646 28.7445C15.7448 30.4185 12.2552 30.4185 9.43539 28.7445L4.47887 25.8021C1.70499 24.1554 3.91083e-07 21.1379 0 17.8754Z" fill="#1F4C42"/>
</svg>
