<svg width="190" height="45" viewBox="0 0 190 45" fill="none" xmlns="http://www.w3.org/2000/svg">
<path d="M62.6553 34.581C60.4056 34.581 58.4614 34.2035 56.8227 33.4485C55.2118 32.6656 53.837 31.6311 52.6982 30.3449L54.948 28.3736C55.9756 29.4641 57.1005 30.3029 58.3225 30.8901C59.5446 31.4773 61.0166 31.7709 62.7386 31.7709C64.4051 31.7709 65.766 31.4773 66.8215 30.8901C67.9047 30.275 68.4463 29.3243 68.4463 28.0381C68.4463 27.4788 68.3352 27.0175 68.113 26.654C67.9185 26.2625 67.6408 25.955 67.2797 25.7313C66.9187 25.5076 66.5159 25.3398 66.0716 25.228C65.6272 25.0882 65.155 24.9763 64.6551 24.8924L61.2805 24.3891C60.5306 24.2773 59.7113 24.1235 58.8225 23.9278C57.9615 23.732 57.1699 23.4245 56.4478 23.005C55.7256 22.5577 55.1146 21.9705 54.6147 21.2435C54.1425 20.5165 53.9064 19.5658 53.9064 18.3915C53.9064 17.301 54.1147 16.3643 54.5313 15.5814C54.9757 14.7705 55.5868 14.0994 56.3644 13.5682C57.1421 13.0089 58.0587 12.6035 59.1141 12.3518C60.1695 12.0722 61.3222 11.9324 62.572 11.9324C64.5162 11.9324 66.1965 12.24 67.613 12.8551C69.0573 13.4703 70.2932 14.3231 71.3209 15.4136L69.1545 17.4687C68.9045 17.1612 68.5851 16.8536 68.1963 16.546C67.8352 16.2105 67.377 15.9169 66.8215 15.6652C66.2938 15.3856 65.6688 15.1619 64.9467 14.9942C64.2246 14.8264 63.3913 14.7425 62.447 14.7425C60.7528 14.7425 59.4474 15.0361 58.5308 15.6233C57.6421 16.2105 57.1977 17.0633 57.1977 18.1817C57.1977 18.741 57.2949 19.2163 57.4893 19.6078C57.7115 19.9713 58.0031 20.2649 58.3642 20.4885C58.7253 20.7122 59.128 20.894 59.5724 21.0338C60.0445 21.1456 60.5167 21.2435 60.9889 21.3274L64.3634 21.8307C65.1411 21.9425 65.9605 22.0963 66.8215 22.292C67.6825 22.4878 68.474 22.8093 69.1962 23.2567C69.9183 23.6761 70.5154 24.2493 70.9876 24.9763C71.4875 25.7033 71.7375 26.654 71.7375 27.8284C71.7375 29.9814 70.9043 31.6451 69.2378 32.8194C67.5991 33.9938 65.405 34.581 62.6553 34.581Z" fill="black"/>
<path d="M83.0948 7.65437C82.1227 7.65437 81.4422 7.45864 81.0534 7.06718C80.6646 6.64777 80.4701 6.13048 80.4701 5.51534V4.84427C80.4701 4.22912 80.6646 3.72582 81.0534 3.33437C81.4422 2.91495 82.1227 2.70524 83.0948 2.70524C84.0669 2.70524 84.7474 2.91495 85.1362 3.33437C85.5251 3.72582 85.7195 4.22912 85.7195 4.84427V5.51534C85.7195 6.13048 85.5251 6.64777 85.1362 7.06718C84.7474 7.45864 84.0669 7.65437 83.0948 7.65437ZM73.6793 31.2256H81.4284V15.2878H73.6793V12.4357H84.7613V31.2256H92.0104V34.0777H73.6793V31.2256Z" fill="black"/>
<path d="M99.4515 34.0777C97.8128 34.0777 96.6046 33.6163 95.8269 32.6936C95.077 31.7709 94.7021 30.5825 94.7021 29.1285V15.2878H87.5363V12.4357H92.869C93.5911 12.4357 94.091 12.2959 94.3688 12.0163C94.6743 11.7087 94.8271 11.1915 94.8271 10.4645V4.80233H98.035V12.4357H107.825V15.2878H98.035V31.2256H107.825V34.0777H99.4515Z" fill="black"/>
<path d="M127.14 34.0777C125.835 34.0777 124.904 33.7421 124.349 33.0711C123.793 32.4 123.446 31.5612 123.307 30.5546H123.099C122.627 31.8128 121.863 32.8054 120.808 33.5324C119.78 34.2315 118.391 34.581 116.641 34.581C114.392 34.581 112.6 33.9938 111.267 32.8194C109.934 31.6451 109.267 30.0373 109.267 27.9961C109.267 25.9829 109.989 24.4311 111.434 23.3406C112.906 22.2501 115.267 21.7049 118.516 21.7049H123.099V19.5658C123.099 17.972 122.655 16.7837 121.766 16.0008C120.877 15.1899 119.613 14.7845 117.975 14.7845C116.53 14.7845 115.35 15.0781 114.433 15.6652C113.517 16.2245 112.781 16.9934 112.225 17.972L109.976 16.2944C110.253 15.7351 110.628 15.1899 111.1 14.6586C111.573 14.1274 112.156 13.666 112.85 13.2746C113.545 12.8551 114.336 12.5336 115.225 12.3099C116.114 12.0583 117.1 11.9324 118.183 11.9324C120.71 11.9324 122.71 12.5755 124.182 13.8617C125.682 15.148 126.432 16.9375 126.432 19.2303V31.1417H129.431V34.0777H127.14ZM117.225 31.7709C118.086 31.7709 118.863 31.673 119.558 31.4773C120.28 31.2536 120.905 30.974 121.432 30.6384C121.96 30.275 122.363 29.8555 122.641 29.3802C122.946 28.8769 123.099 28.3456 123.099 27.7864V24.2214H118.516C116.516 24.2214 115.058 24.501 114.142 25.0602C113.225 25.6194 112.767 26.4303 112.767 27.4928V28.3736C112.767 29.492 113.156 30.3449 113.933 30.932C114.739 31.4913 115.836 31.7709 117.225 31.7709Z" fill="black"/>
<path d="M130.582 31.2256H137.831V15.2878H130.165V12.4357H137.831V7.9899C137.831 6.53592 138.206 5.34757 138.956 4.42485C139.733 3.50214 140.941 3.04078 142.58 3.04078H149.788V5.89281H141.164V12.4357H149.788V15.2878H141.164V31.2256H148.829V34.0777H130.582V31.2256Z" fill="black"/>
<path d="M168.352 34.0777C167.047 34.0777 166.117 33.7421 165.561 33.0711C165.006 32.4 164.658 31.5612 164.519 30.5546H164.311C163.839 31.8128 163.075 32.8054 162.02 33.5324C160.992 34.2315 159.603 34.581 157.854 34.581C155.604 34.581 153.812 33.9938 152.479 32.8194C151.146 31.6451 150.48 30.0373 150.48 27.9961C150.48 25.9829 151.202 24.4311 152.646 23.3406C154.118 22.2501 156.479 21.7049 159.728 21.7049H164.311V19.5658C164.311 17.972 163.867 16.7837 162.978 16.0008C162.089 15.1899 160.825 14.7845 159.187 14.7845C157.743 14.7845 156.562 15.0781 155.646 15.6652C154.729 16.2245 153.993 16.9934 153.438 17.972L151.188 16.2944C151.466 15.7351 151.841 15.1899 152.313 14.6586C152.785 14.1274 153.368 13.666 154.062 13.2746C154.757 12.8551 155.548 12.5336 156.437 12.3099C157.326 12.0583 158.312 11.9324 159.395 11.9324C161.923 11.9324 163.922 12.5755 165.394 13.8617C166.894 15.148 167.644 16.9375 167.644 19.2303V31.1417H170.644V34.0777H168.352ZM158.437 31.7709C159.298 31.7709 160.076 31.673 160.77 31.4773C161.492 31.2536 162.117 30.974 162.645 30.6384C163.172 30.275 163.575 29.8555 163.853 29.3802C164.158 28.8769 164.311 28.3456 164.311 27.7864V24.2214H159.728C157.729 24.2214 156.271 24.501 155.354 25.0602C154.437 25.6194 153.979 26.4303 153.979 27.4928V28.3736C153.979 29.492 154.368 30.3449 155.146 30.932C155.951 31.4913 157.048 31.7709 158.437 31.7709Z" fill="black"/>
<path d="M171.669 31.2256H179.168V5.89281H171.669V3.04078H182.501V31.2256H190V34.0777H171.669V31.2256Z" fill="black"/>
<path d="M0 26.8131V18.0806C0 13.1349 2.64456 8.56881 6.92863 6.11775L14.4571 1.81043C18.6762 -0.603475 23.8531 -0.603479 28.0723 1.81043L35.6007 6.11774C39.8848 8.56881 42.5294 13.1349 42.5294 18.0806L42.5294 22.4161L31.8342 4.00761L10.7016 4.00761L0.26416 22.4161L10.7016 40.8246L31.8342 40.8246L42.5294 22.4161L42.5294 26.8131C42.5294 31.7068 39.9397 36.2331 35.7264 38.7031L28.1979 43.1168C23.9149 45.6277 18.6144 45.6277 14.3315 43.1168L6.80298 38.7031C2.58972 36.2331 5.94019e-07 31.7068 0 26.8131Z" fill="#1F4C42"/>
</svg>
