<svg width="100" height="25" viewBox="0 0 100 25" fill="none" xmlns="http://www.w3.org/2000/svg">
<path d="M32.9765 19.9432C31.7924 19.9432 30.7692 19.7419 29.9067 19.3392C29.0589 18.9217 28.3353 18.3699 27.7359 17.6839L28.92 16.6326C29.4608 17.2142 30.0529 17.6616 30.6961 17.9747C31.3393 18.2879 32.114 18.4445 33.0203 18.4445C33.8974 18.4445 34.6137 18.2879 35.1692 17.9747C35.7393 17.6466 36.0243 17.1396 36.0243 16.4536C36.0243 16.1554 35.9659 15.9093 35.8489 15.7155C35.7466 15.5067 35.6004 15.3426 35.4104 15.2233C35.2204 15.104 35.0084 15.0146 34.7745 14.9549C34.5406 14.8804 34.2921 14.8207 34.029 14.776L32.2529 14.5075C31.8582 14.4479 31.427 14.3659 30.9592 14.2615C30.506 14.1571 30.0894 13.993 29.7094 13.7694C29.3293 13.5308 29.0077 13.2176 28.7446 12.8299C28.4961 12.4421 28.3718 11.9351 28.3718 11.3088C28.3718 10.7272 28.4814 10.2276 28.7007 9.81006C28.9346 9.37759 29.2562 9.01969 29.6655 8.73635C30.0748 8.4381 30.5572 8.22186 31.1127 8.08765C31.6682 7.93852 32.2748 7.86396 32.9326 7.86396C33.9559 7.86396 34.8403 8.028 35.5858 8.35608C36.3459 8.68416 36.9964 9.13899 37.5373 9.72058L36.3971 10.8167C36.2655 10.6526 36.0974 10.4886 35.8928 10.3245C35.7027 10.1456 35.4616 9.98901 35.1692 9.8548C34.8915 9.70567 34.5625 9.58637 34.1825 9.49689C33.8024 9.40742 33.3639 9.36268 32.8669 9.36268C31.9752 9.36268 31.2881 9.51926 30.8057 9.83243C30.3379 10.1456 30.104 10.6004 30.104 11.1969C30.104 11.4952 30.1552 11.7487 30.2575 11.9575C30.3745 12.1513 30.528 12.3079 30.718 12.4272C30.908 12.5465 31.12 12.6435 31.3539 12.718C31.6024 12.7777 31.8509 12.8299 32.0994 12.8746L33.8755 13.143C34.2848 13.2027 34.716 13.2847 35.1692 13.3891C35.6224 13.4935 36.039 13.665 36.419 13.9036C36.7991 14.1273 37.1134 14.433 37.3619 14.8207C37.625 15.2084 37.7566 15.7155 37.7566 16.3418C37.7566 17.4901 37.318 18.3774 36.441 19.0037C35.5785 19.63 34.4237 19.9432 32.9765 19.9432Z" fill="black"/>
<path d="M43.7341 5.58233C43.2225 5.58233 42.8643 5.47794 42.6597 5.26916C42.455 5.04547 42.3527 4.76959 42.3527 4.44151V4.08361C42.3527 3.75553 42.455 3.48711 42.6597 3.27833C42.8643 3.05464 43.2225 2.9428 43.7341 2.9428C44.2457 2.9428 44.6039 3.05464 44.8085 3.27833C45.0132 3.48711 45.1155 3.75553 45.1155 4.08361V4.44151C45.1155 4.76959 45.0132 5.04547 44.8085 5.26916C44.6039 5.47794 44.2457 5.58233 43.7341 5.58233ZM38.7786 18.1537H42.857V9.65348H38.7786V8.13239H44.6112V18.1537H48.4265V19.6748H38.7786V18.1537Z" fill="black"/>
<path d="M52.3429 19.6748C51.4804 19.6748 50.8445 19.4287 50.4352 18.9366C50.0405 18.4445 49.8432 17.8107 49.8432 17.0352V9.65348H46.0717V8.13239H48.8784C49.2585 8.13239 49.5216 8.05783 49.6678 7.9087C49.8286 7.74466 49.909 7.46878 49.909 7.08105V4.06124H51.5974V8.13239H56.7502V9.65348H51.5974V18.1537H56.7502V19.6748H52.3429Z" fill="black"/>
<path d="M66.9158 19.6748C66.2288 19.6748 65.7391 19.4958 65.4467 19.1379C65.1543 18.78 64.9716 18.3326 64.8985 17.7958H64.7889C64.5404 18.4668 64.1384 18.9962 63.5829 19.384C63.042 19.7568 62.3111 19.9432 61.3902 19.9432C60.2061 19.9432 59.2633 19.63 58.5616 19.0037C57.8599 18.3774 57.5091 17.5199 57.5091 16.4313C57.5091 15.3576 57.8892 14.5299 58.6493 13.9483C59.4241 13.3667 60.6666 13.0759 62.3769 13.0759H64.7889V11.9351C64.7889 11.0851 64.555 10.4513 64.0872 10.0337C63.6194 9.60128 62.9543 9.38505 62.0919 9.38505C61.3317 9.38505 60.7105 9.54163 60.2281 9.8548C59.7457 10.153 59.3583 10.5631 59.0659 11.0851L57.8819 10.1903C58.0281 9.89208 58.2254 9.60128 58.4739 9.31794C58.7224 9.0346 59.0294 8.78854 59.3948 8.57977C59.7603 8.35608 60.1769 8.18458 60.6447 8.06528C61.1125 7.93107 61.6314 7.86396 62.2015 7.86396C63.5317 7.86396 64.5842 8.20695 65.359 8.89293C66.1484 9.57891 66.5431 10.5333 66.5431 11.7562V18.1089H68.1218V19.6748H66.9158ZM61.6972 18.4445C62.1503 18.4445 62.5596 18.3923 62.9251 18.2879C63.3052 18.1686 63.6341 18.0195 63.9118 17.8405C64.1896 17.6466 64.4015 17.423 64.5477 17.1694C64.7085 16.901 64.7889 16.6177 64.7889 16.3194V14.4181H62.3769C61.3244 14.4181 60.557 14.5672 60.0746 14.8654C59.5922 15.1637 59.351 15.5962 59.351 16.1628V16.6326C59.351 17.2291 59.5556 17.6839 59.9649 17.9971C60.3889 18.2953 60.9663 18.4445 61.6972 18.4445Z" fill="black"/>
<path d="M68.7272 18.1537H72.5425V9.65348H68.5079V8.13239H72.5425V5.76128C72.5425 4.98582 72.7399 4.35204 73.1345 3.85992C73.5438 3.36781 74.1797 3.12175 75.0422 3.12175H78.8356V4.64283H74.2967V8.13239H78.8356V9.65348H74.2967V18.1537H78.3313V19.6748H68.7272V18.1537Z" fill="black"/>
<path d="M88.6065 19.6748C87.9194 19.6748 87.4297 19.4958 87.1374 19.1379C86.845 18.78 86.6623 18.3326 86.5892 17.7958H86.4796C86.2311 18.4668 85.8291 18.9962 85.2736 19.384C84.7327 19.7568 84.0018 19.9432 83.0809 19.9432C81.8968 19.9432 80.9539 19.63 80.2523 19.0037C79.5506 18.3774 79.1998 17.5199 79.1998 16.4313C79.1998 15.3576 79.5799 14.5299 80.34 13.9483C81.1147 13.3667 82.3573 13.0759 84.0676 13.0759H86.4796V11.9351C86.4796 11.0851 86.2457 10.4513 85.7779 10.0337C85.3101 9.60128 84.645 9.38505 83.7825 9.38505C83.0224 9.38505 82.4011 9.54163 81.9187 9.8548C81.4363 10.153 81.049 10.5631 80.7566 11.0851L79.5725 10.1903C79.7187 9.89208 79.9161 9.60128 80.1646 9.31794C80.4131 9.0346 80.7201 8.78854 81.0855 8.57977C81.451 8.35608 81.8676 8.18458 82.3354 8.06528C82.8031 7.93107 83.3221 7.86396 83.8922 7.86396C85.2224 7.86396 86.2749 8.20695 87.0497 8.89293C87.839 9.57891 88.2337 10.5333 88.2337 11.7562V18.1089H89.8125V19.6748H88.6065ZM83.3878 18.4445C83.841 18.4445 84.2503 18.3923 84.6158 18.2879C84.9958 18.1686 85.3247 18.0195 85.6025 17.8405C85.8802 17.6466 86.0922 17.423 86.2384 17.1694C86.3992 16.901 86.4796 16.6177 86.4796 16.3194V14.4181H84.0676C83.0151 14.4181 82.2476 14.5672 81.7652 14.8654C81.2828 15.1637 81.0416 15.5962 81.0416 16.1628V16.6326C81.0416 17.2291 81.2463 17.6839 81.6556 17.9971C82.0795 18.2953 82.6569 18.4445 83.3878 18.4445Z" fill="black"/>
<path d="M90.3521 18.1537H94.299V4.64283H90.3521V3.12175H96.0531V18.1537H100V19.6748H90.3521V18.1537Z" fill="black"/>
<path d="M0 14.8003V10.143C0 7.50525 1.39187 5.07003 3.64665 3.7628L7.60901 1.46556C9.8296 0.178147 12.5543 0.178145 14.7749 1.46556L18.7372 3.7628C20.992 5.07003 22.3839 7.50525 22.3839 10.143L22.3839 12.4553L16.7548 2.63739L5.63242 2.63739L0.139032 12.4553L5.63242 22.2731L16.7548 22.2731L22.3839 12.4553L22.3839 14.8003C22.3839 17.4103 21.0209 19.8243 18.8034 21.1417L14.841 23.4956C12.5868 24.8348 9.79707 24.8348 7.54288 23.4956L3.58052 21.1417C1.36301 19.8243 3.12642e-07 17.4103 0 14.8003Z" fill="#1F4C42"/>
</svg>
