<svg width="200" height="40" viewBox="0 0 200 40" fill="none" xmlns="http://www.w3.org/2000/svg">
<g clip-path="url(#clip0_302_195)">
<path d="M77.7753 18.175H75.6753H74.9253V17.425V15.1V14.35H75.6753H77.2503C77.6628 14.35 78.0003 14.05 78.0003 13.6V9.625C78.0003 9.2125 77.7003 8.875 77.2503 8.875H74.5128C71.5503 8.875 69.4878 10.975 69.4878 14.0875V17.35V18.1H68.7378H66.1878C65.6628 18.1 65.1753 18.5125 65.1753 19.1125V21.8125C65.1753 22.3375 65.5878 22.825 66.1878 22.825H68.6628H69.4128V23.575V31.1125C69.4128 31.6375 69.8253 32.125 70.4253 32.125H73.9503C74.1753 32.125 74.3628 32.0125 74.5128 31.8625C74.6628 31.7125 74.7753 31.45 74.7753 31.225V23.6125V22.8625H75.5628H77.2503C77.7378 22.8625 78.1128 22.5625 78.1878 22.1125V22.075V22.0375L78.7128 19.45C78.7503 19.1875 78.7128 18.8875 78.4878 18.5875C78.4128 18.4 78.0753 18.2125 77.7753 18.175Z" fill="black"/>
</g>
<g clip-path="url(#clip1_302_195)">
<path d="M35.5875 15.7C35.55 14.5 35.325 13.6375 35.0625 12.85C34.8 12.0625 34.3875 11.425 33.75 10.7875C33.1125 10.15 32.475 9.775 31.725 9.475C30.975 9.175 30.15 8.9875 28.875 8.95C27.5625 8.875 27.1875 8.875 24 8.875C20.8125 8.875 20.475 8.875 19.2 8.9125C17.925 8.95 17.1375 9.175 16.35 9.4375C15.5625 9.7 14.925 10.15 14.2875 10.7875C13.65 11.425 13.2375 12.0625 12.975 12.85C12.675 13.6 12.4875 14.425 12.45 15.7C12.4125 16.975 12.375 17.3125 12.375 20.5C12.375 23.6875 12.375 24.025 12.4125 25.3C12.45 26.575 12.675 27.3625 12.9375 28.15C13.2 28.9375 13.6125 29.575 14.25 30.2125C14.8875 30.85 15.5625 31.2625 16.3125 31.525C17.0625 31.7875 17.8875 32.0125 19.1625 32.05C20.4375 32.125 20.775 32.125 23.9625 32.125C27.15 32.125 27.4875 32.125 28.7625 32.0875C30.0375 32.05 30.825 31.825 31.6125 31.5625C32.4 31.3 33.0375 30.8875 33.675 30.25C34.3125 29.6125 34.725 28.9375 34.9875 28.1875C35.25 27.4375 35.475 26.6125 35.5125 25.3375C35.55 24.1375 35.55 23.7625 35.55 20.575C35.55 17.3875 35.625 16.975 35.5875 15.7ZM33.4875 25.1875C33.45 26.3125 33.225 26.9125 33.075 27.3625C32.85 27.8875 32.5875 28.3 32.175 28.675C31.7625 29.0875 31.3875 29.3125 30.8625 29.575C30.45 29.725 29.85 29.95 28.6875 29.9875C27.4875 29.9875 27.1125 29.9875 24.0375 29.9875C20.9625 29.9875 20.55 29.9875 19.35 29.95C18.225 29.9125 17.625 29.6875 17.175 29.5375C16.65 29.3125 16.2375 29.05 15.8625 28.6375C15.45 28.225 15.225 27.85 14.9625 27.325C14.8125 26.9125 14.5875 26.3125 14.55 25.15C14.55 23.9875 14.55 23.6125 14.55 20.5C14.55 17.3875 14.55 17.0125 14.5875 15.8125C14.625 14.6875 14.85 14.0875 15 13.6375C15.225 13.1125 15.4875 12.7 15.8625 12.325C16.275 11.9125 16.65 11.6875 17.175 11.4625C17.5875 11.3125 18.1875 11.0875 19.35 11.05C20.55 11.0125 20.925 11.0125 24.0375 11.0125C27.15 11.0125 27.525 11.0125 28.725 11.05C29.85 11.0875 30.45 11.3125 30.9 11.4625C31.425 11.6875 31.8375 11.95 32.2125 12.325C32.625 12.7375 32.85 13.1125 33.1125 13.6375C33.2625 14.05 33.4875 14.65 33.525 15.8125C33.5625 17.0125 33.5625 17.3875 33.5625 20.5C33.5625 23.6125 33.525 23.9875 33.4875 25.1875Z" fill="black"/>
<path d="M24.0006 14.5371C20.6631 14.5371 18.0381 17.2371 18.0381 20.4996C18.0381 23.8371 20.7381 26.4621 24.0006 26.4621C27.2631 26.4621 30.0006 23.8371 30.0006 20.4996C30.0006 17.1621 27.3381 14.5371 24.0006 14.5371ZM24.0006 24.3996C21.8256 24.3996 20.1006 22.6371 20.1006 20.4996C20.1006 18.3621 21.8631 16.5996 24.0006 16.5996C26.1756 16.5996 27.9006 18.3246 27.9006 20.4996C27.9006 22.6746 26.1756 24.3996 24.0006 24.3996Z" fill="black"/>
<path d="M30.2625 15.6627C31.0288 15.6627 31.65 15.0415 31.65 14.2752C31.65 13.5089 31.0288 12.8877 30.2625 12.8877C29.4962 12.8877 28.875 13.5089 28.875 14.2752C28.875 15.0415 29.4962 15.6627 30.2625 15.6627Z" fill="black"/>
</g>
<g clip-path="url(#clip2_302_195)">
<path d="M130.938 8.875H111.101C110.163 8.875 109.413 9.625 109.413 10.5625V30.4375C109.413 31.3375 110.163 32.125 111.101 32.125H130.863C131.801 32.125 132.551 31.375 132.551 30.4375V10.525C132.626 9.625 131.876 8.875 130.938 8.875ZM116.276 28.6375H112.863V17.575H116.276V28.6375ZM114.551 16.0375C113.426 16.0375 112.563 15.1375 112.563 14.05C112.563 12.9625 113.463 12.0625 114.551 12.0625C115.638 12.0625 116.538 12.9625 116.538 14.05C116.538 15.1375 115.713 16.0375 114.551 16.0375ZM129.213 28.6375H125.801V23.275C125.801 22 125.763 20.3125 124.001 20.3125C122.201 20.3125 121.938 21.7375 121.938 23.1625V28.6375H118.526V17.575H121.863V19.1125H121.901C122.388 18.2125 123.476 17.3125 125.163 17.3125C128.651 17.3125 129.288 19.5625 129.288 22.6375V28.6375H129.213Z" fill="black"/>
</g>
<path d="M169.612 30.0251C178.462 30.0251 183.263 22.7126 183.263 16.3751C183.263 16.2251 183.262 15.9626 183.225 15.7376C184.162 15.0626 184.987 14.2001 185.625 13.2626C184.725 13.6751 183.825 13.9001 182.888 14.0126C183.9 13.4126 184.65 12.4751 184.987 11.3501C184.05 11.8751 183.075 12.2876 181.912 12.5126C181.012 11.5751 179.812 10.9751 178.425 10.9751C175.762 10.9751 173.587 13.1501 173.587 15.8126C173.587 16.1876 173.625 16.5626 173.7 16.9376C169.838 16.6751 166.312 14.7626 163.912 11.8751C163.5 12.6251 163.275 13.4126 163.275 14.2751C163.275 15.9626 164.137 17.3876 165.45 18.2501C164.662 18.2126 163.913 17.9876 163.275 17.6501C163.275 17.6876 163.275 17.6876 163.275 17.6876C163.275 19.9751 164.925 21.9626 167.1 22.4126C166.688 22.5251 166.237 22.5626 165.9 22.5626C165.6 22.5626 165.263 22.5251 165 22.4501C165.638 24.3626 167.4 25.7501 169.5 25.7876C167.85 27.0626 165.787 27.8501 163.575 27.8501C163.125 27.9251 162.75 27.8501 162.375 27.8126C164.4 29.2376 166.912 30.0251 169.612 30.0251Z" fill="black"/>
<defs>
<clipPath id="clip0_302_195">
<rect width="24" height="24" fill="white" transform="translate(60 8.5)"/>
</clipPath>
<clipPath id="clip1_302_195">
<rect width="24" height="24" fill="white" transform="translate(12 8.5)"/>
</clipPath>
<clipPath id="clip2_302_195">
<rect width="24" height="24" fill="white" transform="translate(109 8.5)"/>
</clipPath>
</defs>
</svg>
