<svg width="174" height="24" viewBox="0 0 174 24" fill="none" xmlns="http://www.w3.org/2000/svg">
<path d="M65.7753 9.675H63.6753H62.9253V8.925V6.6V5.85H63.6753H65.2503C65.6628 5.85 66.0003 5.55 66.0003 5.1V1.125C66.0003 0.7125 65.7003 0.375 65.2503 0.375H62.5128C59.5503 0.375 57.4878 2.475 57.4878 5.5875V8.85V9.6H56.7378H54.1878C53.6628 9.6 53.1753 10.0125 53.1753 10.6125V13.3125C53.1753 13.8375 53.5878 14.325 54.1878 14.325H56.6628H57.4128V15.075V22.6125C57.4128 23.1375 57.8253 23.625 58.4253 23.625H61.9503C62.1753 23.625 62.3628 23.5125 62.5128 23.3625C62.6628 23.2125 62.7753 22.95 62.7753 22.725V15.1125V14.3625H63.5628H65.2503C65.7378 14.3625 66.1128 14.0625 66.1878 13.6125V13.575V13.5375L66.7128 10.95C66.7503 10.6875 66.7128 10.3875 66.4878 10.0875C66.4128 9.9 66.0753 9.7125 65.7753 9.675Z" fill="black"/>
<g clip-path="url(#clip0_196_73)">
<path d="M23.5875 7.2C23.55 6 23.325 5.1375 23.0625 4.35C22.8 3.5625 22.3875 2.925 21.75 2.2875C21.1125 1.65 20.475 1.275 19.725 0.975C18.975 0.675 18.15 0.4875 16.875 0.45C15.5625 0.375 15.1875 0.375 12 0.375C8.8125 0.375 8.475 0.375 7.2 0.4125C5.925 0.45 5.1375 0.675 4.35 0.9375C3.5625 1.2 2.925 1.65 2.2875 2.2875C1.65 2.925 1.2375 3.5625 0.975 4.35C0.675 5.1 0.4875 5.925 0.45 7.2C0.4125 8.475 0.375 8.8125 0.375 12C0.375 15.1875 0.375 15.525 0.4125 16.8C0.45 18.075 0.675 18.8625 0.9375 19.65C1.2 20.4375 1.6125 21.075 2.25 21.7125C2.8875 22.35 3.5625 22.7625 4.3125 23.025C5.0625 23.2875 5.8875 23.5125 7.1625 23.55C8.4375 23.625 8.775 23.625 11.9625 23.625C15.15 23.625 15.4875 23.625 16.7625 23.5875C18.0375 23.55 18.825 23.325 19.6125 23.0625C20.4 22.8 21.0375 22.3875 21.675 21.75C22.3125 21.1125 22.725 20.4375 22.9875 19.6875C23.25 18.9375 23.475 18.1125 23.5125 16.8375C23.55 15.6375 23.55 15.2625 23.55 12.075C23.55 8.8875 23.625 8.475 23.5875 7.2ZM21.4875 16.6875C21.45 17.8125 21.225 18.4125 21.075 18.8625C20.85 19.3875 20.5875 19.8 20.175 20.175C19.7625 20.5875 19.3875 20.8125 18.8625 21.075C18.45 21.225 17.85 21.45 16.6875 21.4875C15.4875 21.4875 15.1125 21.4875 12.0375 21.4875C8.9625 21.4875 8.55 21.4875 7.35 21.45C6.225 21.4125 5.625 21.1875 5.175 21.0375C4.65 20.8125 4.2375 20.55 3.8625 20.1375C3.45 19.725 3.225 19.35 2.9625 18.825C2.8125 18.4125 2.5875 17.8125 2.55 16.65C2.55 15.4875 2.55 15.1125 2.55 12C2.55 8.8875 2.55 8.5125 2.5875 7.3125C2.625 6.1875 2.85 5.5875 3 5.1375C3.225 4.6125 3.4875 4.2 3.8625 3.825C4.275 3.4125 4.65 3.1875 5.175 2.9625C5.5875 2.8125 6.1875 2.5875 7.35 2.55C8.55 2.5125 8.925 2.5125 12.0375 2.5125C15.15 2.5125 15.525 2.5125 16.725 2.55C17.85 2.5875 18.45 2.8125 18.9 2.9625C19.425 3.1875 19.8375 3.45 20.2125 3.825C20.625 4.2375 20.85 4.6125 21.1125 5.1375C21.2625 5.55 21.4875 6.15 21.525 7.3125C21.5625 8.5125 21.5625 8.8875 21.5625 12C21.5625 15.1125 21.525 15.4875 21.4875 16.6875Z" fill="black"/>
<path d="M12.0006 6.03711C8.66309 6.03711 6.03809 8.73711 6.03809 11.9996C6.03809 15.3371 8.73809 17.9621 12.0006 17.9621C15.2631 17.9621 18.0006 15.3371 18.0006 11.9996C18.0006 8.66211 15.3381 6.03711 12.0006 6.03711ZM12.0006 15.8996C9.82559 15.8996 8.10059 14.1371 8.10059 11.9996C8.10059 9.86211 9.86309 8.09961 12.0006 8.09961C14.1756 8.09961 15.9006 9.82461 15.9006 11.9996C15.9006 14.1746 14.1756 15.8996 12.0006 15.8996Z" fill="black"/>
<path d="M18.2625 7.1627C19.0288 7.1627 19.65 6.54147 19.65 5.7752C19.65 5.00888 19.0288 4.3877 18.2625 4.3877C17.4962 4.3877 16.875 5.00888 16.875 5.7752C16.875 6.54147 17.4962 7.1627 18.2625 7.1627Z" fill="black"/>
</g>
<g clip-path="url(#clip1_196_73)">
<path d="M118.938 0.375H99.1006C98.1631 0.375 97.4131 1.125 97.4131 2.0625V21.9375C97.4131 22.8375 98.1631 23.625 99.1006 23.625H118.863C119.801 23.625 120.551 22.875 120.551 21.9375V2.025C120.626 1.125 119.876 0.375 118.938 0.375ZM104.276 20.1375H100.863V9.075H104.276V20.1375ZM102.551 7.5375C101.426 7.5375 100.563 6.6375 100.563 5.55C100.563 4.4625 101.463 3.5625 102.551 3.5625C103.638 3.5625 104.538 4.4625 104.538 5.55C104.538 6.6375 103.713 7.5375 102.551 7.5375ZM117.213 20.1375H113.801V14.775C113.801 13.5 113.763 11.8125 112.001 11.8125C110.201 11.8125 109.938 13.2375 109.938 14.6625V20.1375H106.526V9.075H109.863V10.6125H109.901C110.388 9.7125 111.476 8.8125 113.163 8.8125C116.651 8.8125 117.288 11.0625 117.288 14.1375V20.1375H117.213Z" fill="black"/>
</g>
<path d="M157.612 21.5251C166.462 21.5251 171.263 14.2126 171.263 7.87509C171.263 7.72509 171.262 7.46259 171.225 7.23759C172.162 6.56259 172.987 5.70009 173.625 4.76259C172.725 5.17509 171.825 5.40009 170.888 5.51259C171.9 4.91259 172.65 3.97509 172.987 2.8501C172.05 3.3751 171.075 3.78759 169.912 4.01259C169.012 3.0751 167.812 2.4751 166.425 2.4751C163.762 2.4751 161.587 4.65009 161.587 7.31259C161.587 7.68759 161.625 8.06259 161.7 8.43759C157.838 8.17509 154.312 6.26259 151.912 3.3751C151.5 4.12509 151.275 4.91259 151.275 5.77509C151.275 7.46259 152.137 8.88759 153.45 9.75009C152.662 9.71259 151.913 9.48759 151.275 9.15009C151.275 9.18759 151.275 9.18759 151.275 9.18759C151.275 11.4751 152.925 13.4626 155.1 13.9126C154.688 14.0251 154.237 14.0626 153.9 14.0626C153.6 14.0626 153.263 14.0251 153 13.9501C153.638 15.8626 155.4 17.2501 157.5 17.2876C155.85 18.5626 153.787 19.3501 151.575 19.3501C151.125 19.4251 150.75 19.3501 150.375 19.3126C152.4 20.7376 154.912 21.5251 157.612 21.5251Z" fill="black"/>
<defs>
<clipPath id="clip0_196_73">
<rect width="24" height="24" fill="white"/>
</clipPath>
<clipPath id="clip1_196_73">
<rect width="24" height="24" fill="white" transform="translate(97)"/>
</clipPath>
</defs>
</svg>
