<svg width="793" height="218" viewBox="0 0 793 218" fill="none" xmlns="http://www.w3.org/2000/svg">
<path d="M137.36 39.3001L110.3 23.6801C93.13 13.7701 71.98 13.7701 54.81 23.6801L27.75 39.3001C10.58 49.2201 0 67.5401 0 87.3601V118.61C0 138.44 10.58 156.76 27.75 166.67L54.81 182.3C71.98 192.21 93.13 192.21 110.3 182.3L137.36 166.67C154.53 156.76 165.11 138.44 165.11 118.61V87.3601C165.11 67.5401 154.53 49.2101 137.36 39.3001ZM123.44 173.8H41.67L0.78 102.99L41.67 32.1701H123.45L164.34 102.99L123.45 173.81L123.44 173.8Z" fill="#118D44"/>
</svg>
