<svg width="98" height="103" viewBox="0 0 98 103" fill="none" xmlns="http://www.w3.org/2000/svg">
<path d="M0 61.3721V41.3844C0 30.0642 6.09382 19.6131 15.9656 14.0028L33.3134 4.14388C43.0355 -1.38129 54.9645 -1.3813 64.6866 4.14387L82.0344 14.0028C91.9062 19.613 98 30.0642 98 41.3844L98 51.308L73.3552 9.17297L24.6596 9.17297L0.608701 51.308L24.6596 93.443L73.3552 93.443L98 51.308L98 61.3721C98 72.5734 92.0325 82.9334 82.324 88.5872L64.9761 98.6895C55.1069 104.437 42.8931 104.437 33.0239 98.6895L15.676 88.5872C5.96747 82.9334 1.36879e-06 72.5734 0 61.3721Z" fill="#1F4C42"/>
</svg>
