<svg width="192" height="45" viewBox="0 0 192 45" fill="none" xmlns="http://www.w3.org/2000/svg">
<path d="M63.3149 34.581C61.0415 34.581 59.0768 34.2035 57.4209 33.4485C55.793 32.6656 54.4037 31.6311 53.253 30.3449L55.5264 28.3736C56.5648 29.4641 57.7015 30.3029 58.9365 30.8901C60.1714 31.4773 61.6589 31.7709 63.3991 31.7709C65.0831 31.7709 66.4583 31.4773 67.5248 30.8901C68.6194 30.275 69.1667 29.3243 69.1667 28.0381C69.1667 27.4788 69.0545 27.0175 68.8299 26.654C68.6335 26.2625 68.3528 25.955 67.9879 25.7313C67.6231 25.5076 67.2161 25.3398 66.767 25.228C66.318 25.0882 65.8408 24.9763 65.3356 24.8924L61.9256 24.3891C61.1678 24.2773 60.3398 24.1235 59.4417 23.9278C58.5716 23.732 57.7717 23.4245 57.042 23.005C56.3122 22.5577 55.6948 21.9705 55.1896 21.2435C54.7124 20.5165 54.4739 19.5658 54.4739 18.3915C54.4739 17.301 54.6844 16.3643 55.1054 15.5814C55.5544 14.7705 56.1719 14.0994 56.9578 13.5682C57.7436 13.0089 58.6698 12.6035 59.7364 12.3518C60.8029 12.0722 61.9677 11.9324 63.2307 11.9324C65.1953 11.9324 66.8933 12.24 68.3247 12.8551C69.7842 13.4703 71.0332 14.3231 72.0716 15.4136L69.8824 17.4687C69.6298 17.1612 69.3071 16.8536 68.9141 16.546C68.5493 16.2105 68.0862 15.9169 67.5248 15.6652C66.9916 15.3856 66.3601 15.1619 65.6304 14.9942C64.9006 14.8264 64.0586 14.7425 63.1043 14.7425C61.3923 14.7425 60.0732 15.0361 59.147 15.6233C58.2488 16.2105 57.7998 17.0633 57.7998 18.1817C57.7998 18.741 57.898 19.2163 58.0945 19.6078C58.319 19.9713 58.6137 20.2649 58.9786 20.4885C59.3434 20.7122 59.7504 20.894 60.1995 21.0338C60.6766 21.1456 61.1537 21.2435 61.6308 21.3274L65.0409 21.8307C65.8268 21.9425 66.6548 22.0963 67.5248 22.292C68.3949 22.4878 69.1948 22.8093 69.9245 23.2567C70.6543 23.6761 71.2577 24.2493 71.7348 24.9763C72.24 25.7033 72.4926 26.654 72.4926 27.8284C72.4926 29.9814 71.6506 31.6451 69.9666 32.8194C68.3107 33.9938 66.0935 34.581 63.3149 34.581Z" fill="black"/>
<path d="M83.9695 7.65437C82.9872 7.65437 82.2995 7.45864 81.9066 7.06718C81.5137 6.64777 81.3172 6.13048 81.3172 5.51534V4.84427C81.3172 4.22912 81.5137 3.72582 81.9066 3.33437C82.2995 2.91495 82.9872 2.70524 83.9695 2.70524C84.9518 2.70524 85.6395 2.91495 86.0324 3.33437C86.4253 3.72582 86.6218 4.22912 86.6218 4.84427V5.51534C86.6218 6.13048 86.4253 6.64777 86.0324 7.06718C85.6395 7.45864 84.9518 7.65437 83.9695 7.65437ZM74.4549 31.2256H82.2855V15.2878H74.4549V12.4357H85.6535V31.2256H92.9789V34.0777H74.4549V31.2256Z" fill="black"/>
<path d="M100.498 34.0777C98.8424 34.0777 97.6215 33.6163 96.8356 32.6936C96.0778 31.7709 95.6989 30.5825 95.6989 29.1285V15.2878H88.4577V12.4357H93.8465C94.5763 12.4357 95.0815 12.2959 95.3621 12.0163C95.6709 11.7087 95.8252 11.1915 95.8252 10.4645V4.80233H99.0669V12.4357H108.96V15.2878H99.0669V31.2256H108.96V34.0777H100.498Z" fill="black"/>
<path d="M128.478 34.0777C127.159 34.0777 126.219 33.7421 125.658 33.0711C125.096 32.4 124.746 31.5612 124.605 30.5546H124.395C123.918 31.8128 123.146 32.8054 122.079 33.5324C121.041 34.2315 119.637 34.581 117.869 34.581C115.596 34.581 113.785 33.9938 112.438 32.8194C111.091 31.6451 110.417 30.0373 110.417 27.9961C110.417 25.9829 111.147 24.4311 112.607 23.3406C114.094 22.2501 116.48 21.7049 119.764 21.7049H124.395V19.5658C124.395 17.972 123.946 16.7837 123.047 16.0008C122.149 15.1899 120.872 14.7845 119.216 14.7845C117.757 14.7845 116.564 15.0781 115.638 15.6652C114.712 16.2245 113.968 16.9934 113.407 17.972L111.133 16.2944C111.414 15.7351 111.793 15.1899 112.27 14.6586C112.747 14.1274 113.336 13.666 114.038 13.2746C114.74 12.8551 115.54 12.5336 116.438 12.3099C117.336 12.0583 118.332 11.9324 119.427 11.9324C121.981 11.9324 124.002 12.5755 125.489 13.8617C127.005 15.148 127.763 16.9375 127.763 19.2303V31.1417H130.794V34.0777H128.478ZM118.459 31.7709C119.329 31.7709 120.115 31.673 120.816 31.4773C121.546 31.2536 122.177 30.974 122.711 30.6384C123.244 30.275 123.651 29.8555 123.932 29.3802C124.24 28.8769 124.395 28.3456 124.395 27.7864V24.2214H119.764C117.743 24.2214 116.269 24.501 115.343 25.0602C114.417 25.6194 113.954 26.4303 113.954 27.4928V28.3736C113.954 29.492 114.347 30.3449 115.133 30.932C115.947 31.4913 117.055 31.7709 118.459 31.7709Z" fill="black"/>
<path d="M131.956 31.2256H139.282V15.2878H131.535V12.4357H139.282V7.9899C139.282 6.53592 139.661 5.34757 140.418 4.42485C141.204 3.50214 142.425 3.04078 144.081 3.04078H151.364V5.89281H142.65V12.4357H151.364V15.2878H142.65V31.2256H150.396V34.0777H131.956V31.2256Z" fill="black"/>
<path d="M170.124 34.0777C168.805 34.0777 167.865 33.7421 167.304 33.0711C166.742 32.4 166.392 31.5612 166.251 30.5546H166.041C165.564 31.8128 164.792 32.8054 163.725 33.5324C162.687 34.2315 161.283 34.581 159.515 34.581C157.242 34.581 155.432 33.9938 154.084 32.8194C152.737 31.6451 152.064 30.0373 152.064 27.9961C152.064 25.9829 152.793 24.4311 154.253 23.3406C155.74 22.2501 158.126 21.7049 161.41 21.7049H166.041V19.5658C166.041 17.972 165.592 16.7837 164.694 16.0008C163.795 15.1899 162.518 14.7845 160.862 14.7845C159.403 14.7845 158.21 15.0781 157.284 15.6652C156.358 16.2245 155.614 16.9934 155.053 17.972L152.779 16.2944C153.06 15.7351 153.439 15.1899 153.916 14.6586C154.393 14.1274 154.983 13.666 155.684 13.2746C156.386 12.8551 157.186 12.5336 158.084 12.3099C158.982 12.0583 159.978 11.9324 161.073 11.9324C163.627 11.9324 165.648 12.5755 167.135 13.8617C168.651 15.148 169.409 16.9375 169.409 19.2303V31.1417H172.44V34.0777H170.124ZM160.105 31.7709C160.975 31.7709 161.761 31.673 162.462 31.4773C163.192 31.2536 163.824 30.974 164.357 30.6384C164.89 30.275 165.297 29.8555 165.578 29.3802C165.886 28.8769 166.041 28.3456 166.041 27.7864V24.2214H161.41C159.389 24.2214 157.915 24.501 156.989 25.0602C156.063 25.6194 155.6 26.4303 155.6 27.4928V28.3736C155.6 29.492 155.993 30.3449 156.779 30.932C157.593 31.4913 158.701 31.7709 160.105 31.7709Z" fill="black"/>
<path d="M173.476 31.2256H181.054V5.89281H173.476V3.04078H184.422V31.2256H192V34.0777H173.476V31.2256Z" fill="black"/>
<path d="M0 26.8131V18.0806C0 13.1349 2.67239 8.56881 7.00156 6.11775L14.6093 1.81043C18.8728 -0.603475 24.1042 -0.603479 28.3678 1.81043L35.9755 6.11774C40.3047 8.56881 42.9771 13.1349 42.9771 18.0806L42.977 22.4161L32.1693 4.00761L10.8143 4.00761L0.266941 22.4161L10.8143 40.8246L32.1693 40.8246L42.977 22.4161L42.9771 26.8131C42.9771 31.7068 40.3601 36.2331 36.1025 38.7031L28.4947 43.1168C24.1667 45.6277 18.8104 45.6277 14.4823 43.1168L6.87459 38.7031C2.61698 36.2331 6.00272e-07 31.7068 0 26.8131Z" fill="#1F4C42"/>
</svg>
