<svg width="118" height="31" viewBox="0 0 118 31" fill="none" xmlns="http://www.w3.org/2000/svg">
<path d="M41.8684 24.0643C40.5234 24.0643 39.3611 23.8411 38.3814 23.3947C37.4184 22.9317 36.5964 22.32 35.9157 21.5595L37.2606 20.3939C37.875 21.0387 38.5475 21.5347 39.2781 21.8819C40.0087 22.2291 40.8887 22.4027 41.9182 22.4027C42.9145 22.4027 43.7281 22.2291 44.3591 21.8819C45.0066 21.5181 45.3304 20.956 45.3304 20.1955C45.3304 19.8648 45.264 19.592 45.1312 19.3771C45.0149 19.1456 44.8489 18.9637 44.633 18.8315C44.4172 18.6992 44.1764 18.6 43.9107 18.5339C43.6451 18.4512 43.3628 18.3851 43.0639 18.3355L41.0465 18.0379C40.5981 17.9717 40.1083 17.8808 39.577 17.7651C39.0622 17.6493 38.589 17.4675 38.1573 17.2195C37.7255 16.9549 37.3602 16.6077 37.0614 16.1779C36.7791 15.748 36.6379 15.1859 36.6379 14.4915C36.6379 13.8467 36.7625 13.2928 37.0116 12.8299C37.2772 12.3504 37.6425 11.9536 38.1075 11.6395C38.5724 11.3088 39.1203 11.0691 39.7513 10.9203C40.3823 10.7549 41.0714 10.6723 41.8186 10.6723C42.9809 10.6723 43.9855 10.8541 44.8323 11.2179C45.6957 11.5816 46.4346 12.0859 47.049 12.7307L45.7538 13.9459C45.6044 13.764 45.4135 13.5821 45.181 13.4003C44.9651 13.2019 44.6912 13.0283 44.3591 12.8795C44.0436 12.7141 43.67 12.5819 43.2383 12.4827C42.8065 12.3835 42.3084 12.3339 41.7438 12.3339C40.731 12.3339 39.9506 12.5075 39.4026 12.8547C38.8713 13.2019 38.6056 13.7061 38.6056 14.3675C38.6056 14.6981 38.6637 14.9792 38.7799 15.2107C38.9128 15.4256 39.0871 15.5992 39.303 15.7315C39.5188 15.8637 39.7596 15.9712 40.0253 16.0539C40.3076 16.12 40.5898 16.1779 40.8721 16.2275L42.8896 16.5251C43.3545 16.5912 43.8443 16.6821 44.3591 16.7979C44.8738 16.9136 45.347 17.1037 45.7788 17.3683C46.2105 17.6163 46.5675 17.9552 46.8497 18.3851C47.1486 18.8149 47.2981 19.3771 47.2981 20.0715C47.2981 21.3445 46.7999 22.3283 45.8037 23.0227C44.824 23.7171 43.5122 24.0643 41.8684 24.0643Z" fill="black"/>
<path d="M54.0879 8.14267C53.5067 8.14267 53.0999 8.02693 52.8675 7.79547C52.635 7.54747 52.5188 7.2416 52.5188 6.87787V6.48107C52.5188 6.11733 52.635 5.81973 52.8675 5.58827C53.0999 5.34027 53.5067 5.21627 54.0879 5.21627C54.6691 5.21627 55.0759 5.34027 55.3083 5.58827C55.5408 5.81973 55.657 6.11733 55.657 6.48107V6.87787C55.657 7.2416 55.5408 7.54747 55.3083 7.79547C55.0759 8.02693 54.6691 8.14267 54.0879 8.14267ZM48.459 22.0803H53.0916V12.6563H48.459V10.9699H55.0842V22.0803H59.418V23.7667H48.459V22.0803Z" fill="black"/>
<path d="M63.8666 23.7667C62.8869 23.7667 62.1646 23.4939 61.6997 22.9483C61.2513 22.4027 61.0272 21.7 61.0272 20.8403V12.6563H56.7432V10.9699H59.9313C60.363 10.9699 60.6619 10.8872 60.8279 10.7219C61.0106 10.54 61.1019 10.2341 61.1019 9.80427V6.45627H63.0197V10.9699H68.8728V12.6563H63.0197V22.0803H68.8728V23.7667H63.8666Z" fill="black"/>
<path d="M80.4199 23.7667C79.6395 23.7667 79.0832 23.5683 78.7511 23.1715C78.419 22.7747 78.2115 22.2787 78.1284 21.6835H78.0039C77.7216 22.4275 77.265 23.0144 76.634 23.4443C76.0197 23.8576 75.1894 24.0643 74.1433 24.0643C72.7984 24.0643 71.7274 23.7171 70.9304 23.0227C70.1334 22.3283 69.7348 21.3776 69.7348 20.1707C69.7348 18.9803 70.1666 18.0627 71.03 17.4179C71.91 16.7731 73.3214 16.4507 75.2642 16.4507H78.0039V15.1859C78.0039 14.2435 77.7382 13.5408 77.2069 13.0779C76.6755 12.5984 75.92 12.3587 74.9404 12.3587C74.0769 12.3587 73.3712 12.5323 72.8233 12.8795C72.2753 13.2101 71.8353 13.6648 71.5032 14.2435L70.1583 13.2515C70.3243 12.9208 70.5485 12.5984 70.8307 12.2843C71.113 11.9701 71.4617 11.6973 71.8768 11.4659C72.2919 11.2179 72.7652 11.0277 73.2965 10.8955C73.8279 10.7467 74.4173 10.6723 75.0649 10.6723C76.5759 10.6723 77.7714 11.0525 78.6515 11.8131C79.5481 12.5736 79.9965 13.6317 79.9965 14.9875V22.0307H81.7897V23.7667H80.4199ZM74.492 22.4027C75.0068 22.4027 75.4717 22.3448 75.8868 22.2291C76.3185 22.0968 76.6921 21.9315 77.0076 21.7331C77.3231 21.5181 77.5639 21.2701 77.7299 20.9891C77.9126 20.6915 78.0039 20.3773 78.0039 20.0467V17.9387H75.2642C74.0686 17.9387 73.1969 18.104 72.6489 18.4347C72.101 18.7653 71.827 19.2448 71.827 19.8731V20.3939C71.827 21.0552 72.0595 21.5595 72.5244 21.9067C73.0059 22.2373 73.6618 22.4027 74.492 22.4027Z" fill="black"/>
<path d="M82.4774 22.0803H86.8112V12.6563H82.2283V10.9699H86.8112V8.34107C86.8112 7.48133 87.0354 6.77867 87.4837 6.23307C87.9486 5.68747 88.6709 5.41467 89.6506 5.41467H93.9595V7.10107H88.8037V10.9699H93.9595V12.6563H88.8037V22.0803H93.3866V23.7667H82.4774V22.0803Z" fill="black"/>
<path d="M105.058 23.7667C104.278 23.7667 103.722 23.5683 103.389 23.1715C103.057 22.7747 102.85 22.2787 102.767 21.6835H102.642C102.36 22.4275 101.903 23.0144 101.272 23.4443C100.658 23.8576 99.8277 24.0643 98.7817 24.0643C97.4367 24.0643 96.3657 23.7171 95.5687 23.0227C94.7717 22.3283 94.3731 21.3776 94.3731 20.1707C94.3731 18.9803 94.8049 18.0627 95.6683 17.4179C96.5483 16.7731 97.9597 16.4507 99.9025 16.4507H102.642V15.1859C102.642 14.2435 102.377 13.5408 101.845 13.0779C101.314 12.5984 100.558 12.3587 99.5787 12.3587C98.7152 12.3587 98.0095 12.5323 97.4616 12.8795C96.9136 13.2101 96.4736 13.6648 96.1415 14.2435L94.7966 13.2515C94.9626 12.9208 95.1868 12.5984 95.469 12.2843C95.7513 11.9701 96.1 11.6973 96.5151 11.4659C96.9303 11.2179 97.4035 11.0277 97.9348 10.8955C98.4662 10.7467 99.0556 10.6723 99.7032 10.6723C101.214 10.6723 102.41 11.0525 103.29 11.8131C104.186 12.5736 104.635 13.6317 104.635 14.9875V22.0307H106.428V23.7667H105.058ZM99.1304 22.4027C99.6451 22.4027 100.11 22.3448 100.525 22.2291C100.957 22.0968 101.33 21.9315 101.646 21.7331C101.961 21.5181 102.202 21.2701 102.368 20.9891C102.551 20.6915 102.642 20.3773 102.642 20.0467V17.9387H99.9025C98.7069 17.9387 97.8352 18.104 97.2872 18.4347C96.7393 18.7653 96.4653 19.2448 96.4653 19.8731V20.3939C96.4653 21.0552 96.6978 21.5595 97.1627 21.9067C97.6442 22.2373 98.3001 22.4027 99.1304 22.4027Z" fill="black"/>
<path d="M107.041 22.0803H111.524V7.10107H107.041V5.41467H113.517V22.0803H118V23.7667H107.041V22.0803Z" fill="black"/>
<path d="M0 18.4712V12.4555C0 9.04845 1.80688 5.90296 4.73395 4.21445L9.87775 1.24719C12.7604 -0.415727 16.2975 -0.41573 19.1802 1.24718L24.324 4.21444C27.2511 5.90296 29.058 9.04845 29.058 12.4555L29.058 15.4422L21.7506 2.7608L7.31181 2.7608L0.180486 15.4422L7.31182 28.1236L21.7506 28.1236L29.058 15.4422L29.058 18.4712C29.058 21.8425 27.2886 24.9606 24.4099 26.6622L19.2661 29.7027C16.3398 31.4324 12.7182 31.4324 9.7919 29.7027L4.6481 26.6622C1.76941 24.9606 4.0586e-07 21.8425 0 18.4712Z" fill="#1F4C42"/>
</svg>
